<?xml version="1.0" encoding="UTF-8"?>
<!DOCTYPE svg  PUBLIC '-//W3C//DTD SVG 1.1//EN'  'http://www.w3.org/Graphics/SVG/1.1/DTD/svg11.dtd'>
<svg clip-rule="evenodd" fill-rule="evenodd" stroke-linejoin="round" stroke-miterlimit="2" version="1.1" viewBox="0 0 1760 1592" xml:space="preserve" xmlns="http://www.w3.org/2000/svg"><path d="m1103.3 107.44 45.94-30.165-61.255-6.432s-121.58-68.89-252.05 28.358c0-0 12.949-42-90.987-53.195-103.94-11.195-155.91-35.951-165.56-46.009 0 0-156.01 48.938-95.953 253.19-0 0-32.108 48.413-84.437 52.409-52.328 3.995-218.58 11.737-218.58 11.737s-112.37 74.736 121.28 147.52c0 0 134.2-78.979 199.36-100.5 65.161-21.527 55.115-14.704 55.115-14.704s449.62 449.65 720.09 305.41c0 0-97.647-160.13-133.95-223.48-30.501-53.231-74.104-202.35-158.5-219.36-0 0 108.92-15.994 119.49-104.77z" fill="#8da3a0"/><path d="m749.11 123.5c-22.735-8.69 2.462-19.711 10.215-41.302l-21.103-7.948s-69 55.799-36.295 76.731c-0 0 69.917-18.792 47.183-27.481z" fill="#fff"/><path d="m688.09 156.73-61.405 22.039s-36.918-73.22 55.105-111.8l45.071 3.913s-73.643 51.495-38.771 85.847z" fill="#fff"/><path d="m159.91 385.11s229.22-44.536 240.72-57.91l-0.243-10.208-242.91 27.189s-10.793 17.597 2.434 40.929z" fill="#fff"/><path d="m213.23 429.53 204.89-84.625s4.752 2.375 20.753 7.06l-187.79 95.098s-16.753-6.146-37.854-17.533z" fill="#fff"/><path d="m868.37 199.01s84.252 43.121 109.83 39.46l0.228 24.119s-137.23-24.891-140.84-47.503l30.782-16.076z" fill="#fff"/><path d="m779.75 246.87 29.001-14.668s52.549 27.164 114.62 41.095c27.433 6.157 50.828 10.933 60.874 5.17l1.107 26.145s-108.49 0.516-205.6-57.742z" fill="#fff"/><path d="m716.78 274.91 35.819-17.455s80.017 63.575 237.99 72.869c0 0 253.93 338.94 252.84 339.42-8.448 3.78-29.403 8.139-29.403 8.139l-226.87-315.48s-176.4-19.688-270.38-87.494z" fill="#fff"/><path d="m1084 86.065s-70.049 8.403-103.92 43.521c0 0-0.196-31.473-10.174-44.398-0-0-11.076-17.011-56.988-8.697-28.214 5.11 90.628-42.238 171.08 9.574z" fill="#fff"/><path d="m66.774 1073.6c-23.811 0-40.893-4.05-51.245-12.15-10.353-8.1-15.529-22.62-15.529-43.561v-226.4c-0-4.741 0.518-8.594 1.553-11.557s3.235-5.038 6.6-6.223c3.364-1.186 8.152-1.778 14.364-1.778h32.61c0 0.395-0.259 2.963-0.776 7.705-0.518 4.741-0.777 10.668-0.777 17.78v213.96c0 15.015 2.2 25.88 6.6 32.597s13.07 10.076 26.011 10.076c3.623-0 8.54-0.395 14.752-1.185 6.211-0.791 10.352-1.383 12.423-1.778v18.373c-3.106 0.395-8.153 1.185-15.141 2.37-6.988 1.186-17.47 1.778-31.445 1.778z" fill="#622b36" fill-rule="nonzero"/><path d="m293.75 1075.4c-30.54 0-55.386-1.185-74.538-3.556-19.152-2.37-33.775-6.42-43.869-12.15-10.093-5.729-17.081-13.335-20.963-22.818-3.883-9.483-5.824-21.139-5.824-34.968 0-20.151 3.106-35.561 9.317-46.229 6.212-10.668 17.082-17.978 32.611-21.929s36.234-5.927 62.115-5.927c12.94 0 27.046 0.297 42.316 0.889 15.27 0.593 30.022 1.186 44.257 1.778 14.234 0.593 26.657 1.285 37.269 2.075 10.611 0.79 17.728 1.778 21.352 2.963-0-18.175-2.071-32.597-6.212-43.265-4.141-10.669-10.482-18.571-19.023-23.708-8.54-5.136-19.152-8.495-31.834-10.075-12.681-1.581-27.304-2.371-43.868-2.371-17.082 0-34.293 0.494-51.633 1.482-17.341 0.988-33.258 2.568-47.751 4.741-14.494 2.173-25.623 5.038-33.387 8.594v-8.89c-0-8.298 3.235-14.126 9.705-17.484 6.471-3.359 13.847-5.63 22.129-6.816 9.835-1.975 24.199-3.556 43.092-4.741 18.893-1.186 38.693-1.581 59.398-1.186 26.398 0 49.045 0.988 67.938 2.964 18.893 1.975 34.551 6.223 46.974 12.742 12.423 6.52 21.741 16.299 27.952 29.338 6.212 13.039 9.317 30.819 9.317 53.341v122.09c-3.105 7.902-16.823 13.73-41.151 17.484s-62.891 5.63-115.69 5.63zm-0-20.151c23.811 0 42.833-0.592 57.068-1.778 14.235-1.185 25.105-2.766 32.61-4.741 7.506-1.976 12.294-4.544 14.365-7.705v-88.309c-4.659-1.186-13.329-2.371-26.011-3.556-12.682-1.186-26.011-2.272-39.987-3.26-13.975-0.988-25.881-1.482-35.716-1.482-22.258 0-40.245 0.988-53.962 2.964-13.717 1.975-23.552 6.914-29.505 14.817-5.952 7.902-8.929 20.151-8.929 36.746 0 13.039 2.071 23.707 6.212 32.004 4.141 8.298 12.552 14.422 25.234 18.374 12.682 3.951 32.222 5.926 58.621 5.926z" fill="#622b36" fill-rule="nonzero"/><path d="m567.84 1071.2h-34.163c-6.729-0-11.776-1.285-15.141-3.853-3.364-2.568-5.046-7.408-5.046-14.52v-206.25c11.387-2.766 27.046-5.729 46.974-8.89 19.929-3.161 44.645-4.741 74.15-4.741 27.952-0 50.08 1.481 66.385 4.445 16.305 2.963 28.211 7.013 35.716 12.15 7.506 5.136 12.423 11.359 14.753 18.669 2.329 7.31 3.494 15.509 3.494 24.596h-52.022l-0.776-8.297c-0.518-9.088-4.4-15.706-11.647-19.855-7.246-4.149-15.787-6.717-25.622-7.705s-19.67-1.481-29.505-1.481c-15.011-0-28.34 0.987-39.986 2.963-11.647 1.976-20.835 4.544-27.564 7.705v205.07z" fill="#622b36" fill-rule="nonzero"/><path d="m782.91 1071.2v-283.3c0-6.322 1.294-10.668 3.883-13.039 2.588-2.371 8.281-3.556 17.081-3.556h33.387v190.84l144.42-116.76c5.176-3.951 10.482-6.816 15.917-8.594s13.07-2.864 22.905-3.26c7.764 0 14.752 0.099 20.964 0.297 6.211 0.197 11.905 0.494 17.081 0.889-1.552 1.185-4.399 3.062-8.54 5.63s-8.671 5.334-13.588 8.298c-4.917 2.963-9.447 5.828-13.588 8.594l-100.94 77.64 133.55 114.39c4.658 4.346 9.446 8.297 14.364 11.853 4.917 3.556 9.705 6.915 14.364 10.076-9.835 0.395-19.411 0.592-28.728 0.592h-26.399c-8.8 0-15.529-0.987-20.187-2.963-4.659-1.976-9.835-5.137-15.529-9.483l-109.48-94.236-46.586 33.19v72.9h-54.351z" fill="#622b36" fill-rule="nonzero"/><path d="m1246.7 1074.8c-30.022-0-55.256-1.581-75.702-4.742-20.447-3.161-36.752-9.087-48.916-17.78s-20.964-20.843-26.399-36.45-8.152-35.857-8.152-60.749c-0-28.449 4.658-51.761 13.975-69.937 9.318-18.175 25.882-31.609 49.692-40.302 23.811-8.692 57.198-13.039 100.16-13.039 33.128 0 59.656 3.359 79.585 10.076 19.928 6.717 34.422 16.99 43.48 30.819s13.588 31.807 13.588 53.934v33.783h-218.96c0-4.742 1.553-8.792 4.659-12.15 3.106-3.359 8.8-5.038 17.082-5.038h148.3l-0.776-17.188c-0.518-24.497-7.376-42.277-20.576-53.341-13.199-11.063-36.104-16.595-68.715-16.595-27.434 0-48.915 3.161-64.444 9.483s-26.399 16.595-32.61 30.819c-6.212 14.225-9.317 33.585-9.317 58.083-0 26.078 3.494 45.933 10.481 59.564 6.988 13.632 18.764 22.917 35.328 27.856s39.081 7.409 67.55 7.409c9.835-0 21.094-0.297 33.775-0.89 12.682-0.592 25.493-1.284 38.434-2.074s24.458-1.877 34.551-3.26c10.094-1.383 17.211-2.864 21.352-4.445v7.112c0 3.952-1.423 7.705-4.27 11.261s-8.67 6.52-17.47 8.891c-11.387 3.556-26.787 5.926-46.198 7.112-19.411 1.185-42.574 1.778-69.491 1.778z" fill="#622b36" fill-rule="nonzero"/><path d="m1451.4 1071.2c-11.905-0-17.858-4.742-17.858-14.225v-205.07c15.011-5.136 34.81-9.68 59.398-13.631 24.587-3.951 52.927-5.927 85.019-5.927 30.023 0 54.351 1.581 72.985 4.741 18.635 3.161 32.87 7.903 42.705 14.225 9.834 6.322 16.434 14.52 19.799 24.596 3.364 10.075 5.046 22.225 5.046 36.45v141.06c0 4.347-0.647 7.903-1.941 10.668-1.294 2.766-3.623 4.643-6.988 5.631-3.364 0.988-8.411 1.482-15.14 1.482h-30.281v-167.14c-0-15.805-6.729-27.461-20.187-34.968-13.459-7.507-35.458-11.261-65.998-11.261-9.834 0-20.575 0.593-32.222 1.778-11.646 1.186-22.646 2.865-32.998 5.038-10.353 2.173-18.894 5.038-25.623 8.594v197.96h-35.716z" fill="#622b36" fill-rule="nonzero"/><g transform="matrix(1 0 0 .76333 0 -1281.8)"><text x="-28.237px" y="3594.32px" fill="#4b4343" font-family="'SpecialElite-Regular', 'Special Elite'" font-size="769.65px">camp</text></g></svg>
